<svg width="18px" height="18px" viewBox="0 0 18 18" version="1.1" xmlns="http://www.w3.org/2000/svg" xmlns:xlink="http://www.w3.org/1999/xlink">
    <title>应用管理@1x</title>
    <g id="正文" stroke="none" stroke-width="1" >
        <g id="3-5数据上报-数据查看" transform="translate(-32.000000, -578.000000)">
            <g id="编组-31" transform="translate(-0.000000, 64.000000)">
                <g id="流程配置" transform="translate(0.000000, 499.000000)">
                    <g id="应用管理" transform="translate(32.000000, 15.000000)">
                        <rect id="Rectangle-Copy-4" fill="#D8D8D8" opacity="0" x="0" y="0" width="18" height="18"></rect>
                        <path d="M9,17 C17.0001378,17 17.0001378,17 17.0001378,9 C17.0001378,4.581722 13.418278,1 9,1 C4.581722,1 1,4.581722 1,9 C1,13.418278 4.581722,17 9,17 Z" id="椭圆形"></path>
                        <path d="M8.4696169,12 C9.12415014,10.9743565 9.80136308,10.0639206 10.3046109,9.4230251 C10.6017101,9.04468628 10.8807473,8.70056841 11.1478224,8.39099982 C11.3895338,8.11081623 11.6291835,7.85390945 11.8595551,7.61218766 C12.2522409,7.20008619 12.7113127,6.74358571 13,6.54807554 L12.6313115,6 C12.0967769,6.37500086 11.5822381,6.77554259 11.1849529,7.08333276 C10.9534406,7.26272085 10.7386057,7.43513889 10.5361415,7.5993625 C10.3355804,7.76206078 10.1285047,7.94074434 9.91016831,8.12817636 C9.53110376,8.45356608 9.04408799,8.89096903 8.57249295,9.34296189 L7.38913473,8.08971456 L6,9.31732525 L8.4696169,12 Z" id="路径" fill="#FFFFFF" fill-rule="nonzero"></path>
                    </g>
                </g>
            </g>
        </g>
    </g>
</svg>