<?xml version="1.0" encoding="UTF-8"?>
<svg width="18px" height="18px" viewBox="0 0 18 18" version="1.1" xmlns="http://www.w3.org/2000/svg" xmlns:xlink="http://www.w3.org/1999/xlink">
    <title>icyibansel</title>
    <g id="企业外迁预警V2.0-1221" stroke="none" stroke-width="1" fill="none" fill-rule="evenodd">
        <g id="4-2-3已办结-默认列表-详情-历史处理记录备份" transform="translate(-16, -196)">
            <g id="侧边导航栏" transform="translate(0, 64)">
                <g id="日志管理" transform="translate(0, 116)">
                    <g id="icyibansel" transform="translate(16, 16)">
                        <rect id="矩形" x="0" y="0" width="18" height="18"></rect>
                        <g id="编组" fill-rule="nonzero">
                            <path d="M12.9484374,0 C14.3161458,0 15,0.661054589 15,1.98316377 L15.0011092,10.5357707 C14.4125119,10.1950335 13.7290322,10 13,10 C10.790861,10 9,11.790861 9,14 C9,16.2001016 10.7762385,17.9853405 12.9729089,17.9999102 L12.9484374,18 L2.05156261,18 C0.683854202,18 0,17.3389454 0,16.0168362 L0,1.98316377 C0,0.661054589 0.683854202,0 2.05156261,0 L12.9484374,0 Z" id="形状结合" fill="#000000"></path>
                            <path d="M3.76139411,4.23167592 L10.2378082,4.23167592 C10.8010441,4.23167592 11.082662,4.50098224 11.082662,5.0395949 C11.082662,5.57820755 10.8010441,5.84751388 10.2378082,5.84751388 L3.76139411,5.84751388 C3.19815829,5.84751388 2.91654038,5.57820755 2.91654038,5.0395949 C2.91654038,4.50098224 3.19815829,4.23167592 3.76139411,4.23167592 Z" id="路径" fill="#FFFFFF"></path>
                            <path d="M3.76139411,8.00165932 L6.15474745,8.00165932 C6.71798327,8.00165932 6.99960118,8.27096565 6.99960118,8.8095783 C6.99960118,9.34819096 6.71798327,9.61749728 6.15474745,9.61749728 L3.76139411,9.61749728 C3.19815829,9.61749728 2.91654038,9.34819096 2.91654038,8.8095783 C2.91654038,8.27096565 3.19815829,8.00165932 3.76139411,8.00165932 Z" id="路径" fill="#FFFFFF"></path>
                            <path d="M3.76139411,11.7716427 L5.19740611,11.7716427 C5.76064193,11.7716427 6.04225984,12.0409491 6.04225984,12.5795617 C6.04225984,13.1181744 5.76064193,13.3874807 5.19740611,13.3874807 L3.76139411,13.3874807 C3.19815829,13.3874807 2.91654038,13.1181744 2.91654038,12.5795617 C2.91654038,12.0409491 3.19815829,11.7716427 3.76139411,11.7716427 Z" id="路径" fill="#FFFFFF"></path>
                            <path d="M12.3107487,16.5 C12.1192228,16.5001492 11.9338685,16.4382414 11.7877609,16.3253218 C11.6234161,16.198902 11.5209253,16.0180937 11.502865,15.8227252 C11.4848048,15.6273566 11.5526567,15.4334549 11.6914744,15.2837325 L12.8783324,14.003696 L12.8783324,12.2393713 C12.8783324,11.8308686 13.2411805,11.5 13.6891662,11.5 C14.1371519,11.5 14.5,11.8308686 14.5,12.2393713 L14.5,14.2744907 C14.5,14.4491672 14.4320927,14.6182983 14.3084405,14.7513852 L12.930023,16.2375214 C12.77643,16.4043446 12.5496214,16.5004764 12.3107487,16.5 L12.3107487,16.5 Z" id="路径" fill="#000000"></path>
                        </g>
                    </g>
                </g>
            </g>
        </g>
    </g>
</svg>