<?xml version="1.0" encoding="UTF-8"?>
<svg width="18px" height="18px" viewBox="0 0 18 18" version="1.1" xmlns="http://www.w3.org/2000/svg" xmlns:xlink="http://www.w3.org/1999/xlink">
    <title>iczonghechaxunnor</title>
    <g id="企业外迁预警V2.0-1221" stroke="none" stroke-width="1" fill="none" fill-rule="evenodd">
        <g id="4-2-3已办结-默认列表-详情-历史处理记录备份" transform="translate(-16, -292)">
            <g id="侧边导航栏" transform="translate(0, 64)">
                <g id="日志管理" transform="translate(0, 212)">
                    <g id="iczonghechaxunnor" transform="translate(16, 16)">
                        <rect id="矩形" x="0" y="0" width="18" height="18"></rect>
                        <g id="编组" fill="#000000" fill-rule="nonzero">
                            <path d="M7.96909091,15.75 C7.96909091,16.9894525 6.96671703,17.9954929 5.72727274,18 L2.25000001,18 C1.00735932,18 0,16.9926407 0,15.75 L0,12.2727273 C0,11.0300866 1.00735933,10.0227273 2.25000001,10.0227273 L5.72727274,10.0227273 C6.96485352,10.0316875 7.96463923,11.035122 7.96909091,12.2727273 L7.96909091,15.75 Z" id="路径"></path>
                            <path d="M7.96909091,5.7190909 C7.96463925,6.95669612 6.96485354,7.9601307 5.72727274,7.96909091 L2.25000001,7.96909091 C1.01054753,7.96909091 0.00450711397,6.96671703 0,5.72727274 L0,2.25000001 C0,1.00735932 1.00735932,0 2.25000001,0 L5.72727274,0 C6.96991342,0 7.97727272,1.00735933 7.97727272,2.25000001 L7.96909091,5.7190909 Z" id="路径"></path>
                            <path d="M10.4621095,2.29166451 L12.0984731,0.655300866 C12.9762956,-0.218433622 14.3951961,-0.218433622 15.2730186,0.655300866 L16.9093822,2.29166451 C17.7831167,3.16948697 17.7831167,4.58838749 16.9093822,5.46620995 L15.2730186,7.1025736 C14.8535085,7.52628689 14.2820022,7.76468309 13.6857459,7.76468309 C13.0894895,7.76468309 12.5179832,7.52628689 12.0984731,7.1025736 L10.4621095,5.46620995 C10.0383962,5.04669991 9.8,4.47519358 9.8,3.87893723 C9.8,3.28268089 10.0383962,2.71117455 10.4621095,2.29166451 L10.4621095,2.29166451 Z" id="路径"></path>
                            <path d="M18,15.75 C18,16.9926407 16.9926407,18 15.75,18 L12.2727273,18 C11.0300866,18 10.0227273,16.9926407 10.0227273,15.75 L10.0227273,12.2727273 C10.0316875,11.0351465 11.035122,10.0353608 12.2727273,10.0308941 L15.7418182,10.0308941 C16.3385565,10.0287352 16.9117171,10.2637057 17.3352092,10.684129 C17.7587013,11.1045523 17.997834,11.6759889 18,12.2727273 L18,15.75 Z" id="路径"></path>
                        </g>
                    </g>
                </g>
            </g>
        </g>
    </g>
</svg>