<?xml version="1.0" encoding="UTF-8"?>
<svg width="18px" height="18px" viewBox="0 0 18 18" version="1.1" xmlns="http://www.w3.org/2000/svg" xmlns:xlink="http://www.w3.org/1999/xlink">
    <title>icondaibannor</title>
    <g id="企业外迁预警V2.0-1221" stroke="none" stroke-width="1" fill="none" fill-rule="evenodd">
        <g id="4-2-3已办结-默认列表-详情-历史处理记录备份" transform="translate(-16, -147)">
            <g id="侧边导航栏" transform="translate(0, 64)">
                <g id="用户中心" transform="translate(0, 68)">
                    <g id="icondaibannor" transform="translate(16, 15)">
                        <rect id="矩形" x="0" y="0" width="18" height="18"></rect>
                        <g id="编组" fill="#000000" fill-rule="nonzero">
                            <path d="M6.97280152,12.8177742 L3.77401425,16.0165623 C3.17711288,16.6134639 2.58021152,16.6134639 1.98331016,16.0165623 C1.38647198,15.4197238 1.38647198,14.8228222 1.98337335,14.2259206 L5.18216062,11.0271325 C5.77906199,10.4302309 6.37596335,10.4302309 6.97286472,11.0271325 C7.56970289,11.6239709 7.56970289,12.2208726 6.97280152,12.8177742 Z" id="路径"></path>
                            <path d="M12.4360209,9.14525697 C14.0646174,11.6034156 13.795955,14.9480155 11.630223,17.1137483 L10.7439718,18 L0,7.2560235 L0.886251281,6.36977186 C3.05204639,4.2039758 6.39658161,3.9353764 8.85473913,5.56397362 L10.7318374,3.68687453 L10.2818546,3.23689151 C9.54140533,2.49644194 9.54140533,1.29589736 10.2819178,0.555384574 C11.0224302,-0.185128191 12.2229743,-0.185128191 12.9634867,0.555384574 L17.4446078,5.03650757 C18.1851202,5.77702035 18.1851202,6.97756491 17.444671,7.71801451 C16.7041585,8.4585273 15.5036145,8.4585273 14.763102,7.71801451 L14.3131824,7.26809469 L12.4360841,9.14519378 L12.4360209,9.14525697 Z" id="路径"></path>
                            <path d="M3.87490822,7.96259797 C3.68343723,8.08298993 3.44228242,8.09208809 3.24228448,7.98646525 C3.04228654,7.88084242 2.91382991,7.67654521 2.90530296,7.45053042 C2.89677601,7.22451563 3.00947419,7.01112027 3.20094519,6.89072832 C4.57933357,6.02400541 6.02155378,5.96649355 7.43501806,6.72546068 C7.74304853,6.89087225 7.85866406,7.27467297 7.69325256,7.58270359 C7.52784107,7.8907342 7.14404052,8.00634979 6.83601004,7.84093822 C5.82620308,7.29880981 4.87005279,7.33691933 3.87484501,7.96266116 L3.87490822,7.96259797 Z" id="路径"></path>
                        </g>
                    </g>
                </g>
            </g>
        </g>
    </g>
</svg>