<?xml version="1.0" encoding="UTF-8"?>
<svg width="18px" height="18px" viewBox="0 0 18 18" version="1.1" xmlns="http://www.w3.org/2000/svg" xmlns:xlink="http://www.w3.org/1999/xlink">
    <title>iconfabusel</title>
    <g id="企业外迁预警V2.0-1221" stroke="none" stroke-width="1" fill="none" fill-rule="evenodd">
        <g id="1-4-3发布企业外迁动向-默认列表-发送-输入页" transform="translate(-16, -99)">
            <g id="侧边导航栏" transform="translate(0, 64)">
                <g id="权限管理" transform="translate(0, 20)">
                    <g id="iconfabusel" transform="translate(16, 15)">
                        <rect id="Rectangle-Copy-2" x="0" y="0" width="18" height="18"></rect>
                        <path d="M16.8227068,0.100844134 L0.47776638,8.23076887 C-0.120900888,8.54683506 -0.135610157,9.18335724 0.314493487,9.53161535 L4.2374557,11.9708854 C4.56055335,12.1619749 4.97509111,12.093348 5.218564,11.8084625 L13.8808529,4.00338359 L14.2073987,4.16580649 L6.36147425,12.4581541 C6.23600801,12.5877959 6.17602052,12.7668215 6.19820136,12.9454228 L6.19820136,16.5231165 C6.19202307,16.8651023 6.38283938,17.1805266 6.68949096,17.335231 C6.96741576,17.4575337 7.29264336,17.3924751 7.50144266,17.1728081 L9.468072,15.2178802 L13.3851505,17.823963 C14.0132363,18.1751476 14.5339445,17.9951655 14.6928046,17.335231 L17.967088,1.07684483 C18.1391865,0.266193585 17.6184783,-0.222538386 16.8227068,0.100844134 Z" id="路径" fill="#1177EE" fill-rule="nonzero"></path>
                    </g>
                </g>
            </g>
        </g>
    </g>
</svg>