<?xml version="1.0" encoding="UTF-8"?>
<svg width="24px" height="24px" viewBox="0 0 24 24" version="1.1" xmlns="http://www.w3.org/2000/svg" xmlns:xlink="http://www.w3.org/1999/xlink">
    <title>形状结合</title>
    <g id="页面-1" stroke="none" stroke-width="1" fill="none" fill-rule="evenodd">
        <g id="2-1-6数据直报-资源管理-删除资源" transform="translate(-712.000000, -461.000000)" fill="#FA5555" fill-rule="nonzero">
            <g id="Group-3" transform="translate(672.000000, 429.000000)">
                <g id="分组" transform="translate(40.000000, 32.000000)">
                    <path d="M12,0 C18.6171429,0 24,5.36571429 24,12 C24,18.6342857 18.6342857,24 12,24 C5.36571429,24 0,18.6342857 0,12 C0,5.36571429 5.36571429,0 12,0 Z M12,1.71428571 C6.32571429,1.71428571 1.71428571,6.32571429 1.71428571,12 C1.71428571,17.6742857 6.32571429,22.2857143 12,22.2857143 C17.6742857,22.2857143 22.2857143,17.6742857 22.2857143,12 C22.2857143,6.32571429 17.6742857,1.71428571 12,1.71428571 Z M9.36396103,7.24264069 L12.1917475,10.0707475 L15.0208153,7.24264069 C15.4113396,6.8521164 16.0445046,6.8521164 16.4350288,7.24264069 L17.1421356,7.94974747 C17.5326599,8.34027176 17.5326599,8.97343674 17.1421356,9.36396103 L14.3137475,12.1917475 L17.1421356,15.0208153 C17.5326599,15.4113396 17.5326599,16.0445046 17.1421356,16.4350288 L16.4350288,17.1421356 C16.0445046,17.5326599 15.4113396,17.5326599 15.0208153,17.1421356 L12.1917475,14.3137475 L9.36396103,17.1421356 C8.97343674,17.5326599 8.34027176,17.5326599 7.94974747,17.1421356 L7.24264069,16.4350288 C6.8521164,16.0445046 6.8521164,15.4113396 7.24264069,15.0208153 L10.0707475,12.1917475 L7.24264069,9.36396103 C6.8521164,8.97343674 6.8521164,8.34027176 7.24264069,7.94974747 L7.94974747,7.24264069 C8.34027176,6.8521164 8.97343674,6.8521164 9.36396103,7.24264069 Z" id="形状结合"></path>
                </g>
            </g>
        </g>
    </g>
</svg>