<svg id="图层_1" data-name="图层 1" xmlns="http://www.w3.org/2000/svg" viewBox="0 0 139.01 150"><g id="页面-1"><g id="_2.1首页_用户_" data-name="2.1首页（用户）"><g id="icon-数据处理"><g id="指令管理"><g id="icon-指令管理"><path id="路径" d="M144.5,3.27c0-4.57-4.36-3.43-5.71-2.07-2.6,2.8-9.46,8.52-24.11,11.53a29.82,29.82,0,0,1-6.75.73c-7.07,0-13-2.29-19.75-5C80.39,5.46,71.56,2,59.51,2c-1,0-2.08,0-3.12.1C43.29,2.76,32,8.47,23.76,12.73c-2.41,1.21-4.84,2.39-7.27,3.53l-.73-1.76-.11-.11a5.3,5.3,0,0,0-7-2.8,5.17,5.17,0,0,0-2.8,2.91,5.45,5.45,0,0,0,0,4.05L60,146.78A5.24,5.24,0,0,0,64.91,150a4.52,4.52,0,0,0,2.07-.42,5.3,5.3,0,0,0,2.81-7L51.29,98.77a29.82,29.82,0,0,1,17.88-13.4A40.18,40.18,0,0,1,79.35,84c7,0,13.72,1.56,20.89,3.22,6.54,1.45,13.19,3,19.74,3,9.87,0,17.46-3.43,24-10.7a5.08,5.08,0,0,0,.52-1.66V3.27Z" transform="translate(-5.5 0)"/></g></g></g></g></g></svg>