<?xml version="1.0" encoding="UTF-8"?>
<svg width="24px" height="24px" viewBox="0 0 24 24" version="1.1" xmlns="http://www.w3.org/2000/svg" xmlns:xlink="http://www.w3.org/1999/xlink">
    <title>ic_password</title>
    <g id="页面-1" stroke="none" stroke-width="1" fill="none" fill-rule="evenodd">
        <g id="0-1-3登录-状态" transform="translate(-1243.000000, -513.000000)">
            <g id="Group-4" transform="translate(1171.000000, 211.000000)">
                <g id="编组-5" transform="translate(48.000000, 284.000000)">
                    <g id="编组-4" transform="translate(24.000000, 18.000000)">
                        <rect id="矩形" x="0" y="0" width="24" height="24"></rect>
                        <path d="M18.7406466,9.79418246 L8.61847645,9.79418246 L8.61847645,6.12828338 C8.61847645,4.91459894 10.1295576,3.56674747 11.9924934,3.56674747 C13.8556676,3.56674747 15.3665104,4.91472014 15.3665104,6.12828338 L15.3665104,7.22743499 L15.3811661,7.22743499 C15.4741044,7.84918466 16.0217253,8.3267078 16.6819446,8.3267078 C17.3469299,8.3267078 17.8946699,7.84918466 17.9826039,7.22743499 L17.9972595,7.22743499 L17.9972595,6.12816219 C17.9972595,3.2979286 15.3127731,1 11.9973787,1 C8.68698864,1 6.00238303,3.2979286 6.00238303,6.12816219 L6.00238303,9.79418246 L5.24934467,9.79418246 C4.00730797,9.79418246 3,10.7789224 3,11.997576 L3,20.8015756 C3,22.01526 4.00730797,23 5.24934467,23 L18.7505362,23 C19.9975772,23 21,22.01526 21,20.8015756 L21,11.997576 C20.9948765,10.7789224 19.9777981,9.79418246 18.7406466,9.79418246 Z M13.1123997,17.916439 L13.1123997,18.9163288 C13.1123997,19.5481379 12.6086266,20.0553599 11.9828422,20.0553599 C11.6855843,20.0562597 11.4002449,19.9365461 11.1900509,19.7227408 C10.979857,19.5089355 10.8621654,19.2186938 10.863055,18.9163288 L10.863055,17.916439 C9.97799666,17.5086051 9.35697831,16.6331864 9.35697831,15.6285699 C9.35697831,14.2258153 10.5355072,13.0918797 11.9828422,13.0918797 C13.4301771,13.0918797 14.6038208,14.2256941 14.6038208,15.6285699 C14.6135912,16.6333076 13.9974581,17.5086051 13.1123997,17.916439 L13.1123997,17.916439 Z" id="形状" fill="#1177EE" fill-rule="nonzero"></path>
                    </g>
                </g>
            </g>
        </g>
    </g>
</svg>