<?xml version="1.0" encoding="UTF-8"?>
<svg width="24px" height="24px" viewBox="0 0 24 24" version="1.1" xmlns="http://www.w3.org/2000/svg" xmlns:xlink="http://www.w3.org/1999/xlink">
    <title>ic_username</title>
    <g id="页面-1" stroke="none" stroke-width="1" fill="none" fill-rule="evenodd">
        <g id="0-1-3登录-状态" transform="translate(-1243.000000, -345.000000)">
            <g id="Group-4" transform="translate(1171.000000, 211.000000)">
                <g id="编组-2备份-3" transform="translate(48.000000, 116.000000)">
                    <g id="编组-3" transform="translate(24.000000, 18.000000)">
                        <rect id="矩形" x="0" y="0" width="24" height="24"></rect>
                        <path d="M14.1940219,13.3333333 L9.14275428,13.3333333 C5.20441943,13.3333333 2,16.5879265 2,20.5879265 C2,22.4706912 3.50917818,24 5.35947198,24 L17.9738586,24 C19.827598,24 21.3333333,22.4671916 21.3333333,20.5879265 C21.3367762,16.5879265 18.1323567,13.3333333 14.1940219,13.3333333 L14.1940219,13.3333333 Z M11.6666667,12.6666667 C15.1580756,12.6666667 18,9.82474227 18,6.33333333 C18,2.8419244 15.1580756,0 11.6666667,0 C8.17525773,0 5.33333333,2.8419244 5.33333333,6.33333333 C5.33333333,9.82474227 8.17525773,12.6666667 11.6666667,12.6666667 Z M10.7318928,7.33333333 L13.5248348,7.33333333 C13.8337316,7.33333333 14.0686218,7.61682243 13.9817446,7.90342679 C13.7275483,8.72897196 12.9360002,9.33333333 11.9996568,9.33333333 C11.0633134,9.33333333 10.2717653,8.72897196 10.017569,7.90342679 C9.93069173,7.61682243 10.165582,7.33333333 10.7318928,7.33333333 L10.7318928,7.33333333 Z" id="形状" fill="#1177EE" fill-rule="nonzero"></path>
                    </g>
                </g>
            </g>
        </g>
    </g>
</svg>