<?xml version="1.0" standalone="no"?><!DOCTYPE svg PUBLIC "-//W3C//DTD SVG 1.1//EN" "http://www.w3.org/Graphics/SVG/1.1/DTD/svg11.dtd"><svg t="1665216890772" class="icon" viewBox="0 0 1024 1024" version="1.1" xmlns="http://www.w3.org/2000/svg" p-id="21566" xmlns:xlink="http://www.w3.org/1999/xlink" width="200" height="200"><path d="M819.2 194.56a10.24 10.24 0 0 1 10.24 10.24v614.4a10.24 10.24 0 0 1-10.24 10.24H204.8a10.24 10.24 0 0 1-10.24-10.24V204.8a10.24 10.24 0 0 1 10.24-10.24z m-10.24 20.48H215.04v593.92h593.92V215.04zM557.44512 390.144l1.09568 0.62464 1.024 0.77824 133.12 112.61952c0.78848 0.65536 1.4336 1.40288 1.96608 2.21184l0.58368 1.00352 0.55296 1.35168 0.21504 0.70656 0.16384 0.78848 0.13312 1.16736v1.39264l-0.1536 1.09568-0.27648 1.1264-0.28672 0.8192-0.6144 1.24928a10.15808 10.15808 0 0 1-2.58048 2.99008l-132.8128 112.384a10.24 10.24 0 0 1-14.16192-14.7456l0.93184-0.88064L658.08384 522.24H327.68a10.24 10.24 0 0 1-1.19808-20.40832L327.68 501.76h330.47552l-111.81056-94.58688a10.24 10.24 0 0 1-1.97632-13.39392l0.77824-1.024a10.24 10.24 0 0 1 12.29824-2.60096z" p-id="21567" fill="#1177EE"></path></svg>