<?xml version="1.0" encoding="UTF-8"?>
<svg width="24px" height="24px" viewBox="0 0 24 24" version="1.1" xmlns="http://www.w3.org/2000/svg" xmlns:xlink="http://www.w3.org/1999/xlink">
    <title>icon-失败</title>
    <g id="页面-1" stroke="none" stroke-width="1" fill="none" fill-rule="evenodd">
        <g id="4.1.1数据接入-指令上报-消息" transform="translate(-1528.000000, -108.000000)" fill="#FA5555" fill-rule="nonzero">
            <g id="Group-3-Copy-2备份" transform="translate(1504.000000, 92.000000)">
                <path d="M36,16 C42.6171429,16 48,21.3657143 48,28 C48,34.6342857 42.6342857,40 36,40 C29.3657143,40 24,34.6342857 24,28 C24,21.3657143 29.3657143,16 36,16 Z M36,17.7142857 C30.3257143,17.7142857 25.7142857,22.3257143 25.7142857,28 C25.7142857,33.6742857 30.3257143,38.2857143 36,38.2857143 C41.6742857,38.2857143 46.2857143,33.6742857 46.2857143,28 C46.2857143,22.3257143 41.6742857,17.7142857 36,17.7142857 Z M33.363961,23.2426407 L36.1930953,26.0703607 L39.0208153,23.2426407 C39.4113396,22.8521164 40.0445046,22.8521164 40.4350288,23.2426407 L41.1421356,23.9497475 C41.5326599,24.3402718 41.5326599,24.9734367 41.1421356,25.363961 L38.3137085,28.1923882 L41.1421356,31.0208153 C41.5326599,31.4113396 41.5326599,32.0445046 41.1421356,32.4350288 L40.4350288,33.1421356 C40.0445046,33.5326599 39.4113396,33.5326599 39.0208153,33.1421356 L36.1923882,30.3137085 L33.363961,33.1421356 C32.9734367,33.5326599 32.3402718,33.5326599 31.9497475,33.1421356 L31.2426407,32.4350288 C30.8521164,32.0445046 30.8521164,31.4113396 31.2426407,31.0208153 L34.0717749,28.191681 L31.2426407,25.363961 C30.8521164,24.9734367 30.8521164,24.3402718 31.2426407,23.9497475 L31.9497475,23.2426407 C32.3402718,22.8521164 32.9734367,22.8521164 33.363961,23.2426407 Z" id="icon-失败"></path>
            </g>
        </g>
    </g>
</svg>