<?xml version="1.0" encoding="UTF-8"?>
<svg width="24px" height="24px" viewBox="0 0 24 24" version="1.1" xmlns="http://www.w3.org/2000/svg" xmlns:xlink="http://www.w3.org/1999/xlink">
    <title>icon-成功</title>
    <g id="页面-1" stroke="none" stroke-width="1" fill="none" fill-rule="evenodd">
        <g id="4.1.1数据接入-指令上报-消息" transform="translate(-1528.000000, -244.000000)" fill="#11BB77" fill-rule="nonzero">
            <g id="Group-3备份" transform="translate(1504.000000, 228.000000)">
                <path d="M36,16 C29.3657143,16 24,21.3657143 24,28 C24,34.6342857 29.3657143,40 36,40 C42.6342857,40 48,34.6342857 48,28 C48,21.3657143 42.6171429,16 36,16 Z M36,38.2857143 C30.3257143,38.2857143 25.7142857,33.6742857 25.7142857,28 C25.7142857,22.3257143 30.3257143,17.7142857 36,17.7142857 C41.6742857,17.7142857 46.2857143,22.3257143 46.2857143,28 C46.2857143,33.6742857 41.6742857,38.2857143 36,38.2857143 Z M34.5994136,33.1216635 C34.3912827,33.3313773 34.0539594,33.3313773 33.8474434,33.1216635 L33.6803567,32.9528979 L33.6803567,32.9528979 L33.5022535,32.7731638 L32.7187367,31.9834113 C32.7172177,31.9802614 32.7187367,31.9755925 32.7155868,31.9739617 L29.1309452,28.3294566 C28.9228143,28.1197428 28.9228143,27.7791737 29.1309452,27.5710908 L30.2580211,26.4329345 C30.466136,26.2234285 30.8034433,26.2234285 31.0115262,26.4329345 L34.2273778,29.7025097 L40.9900567,22.8782565 C41.1965887,22.6686547 41.533912,22.6686547 41.7419949,22.8782565 L42.8691027,24.0164129 C43.0771857,24.2259188 43.0771857,24.5650649 42.8691027,24.7745708 L34.5994136,33.1216635 L34.5994136,33.1216635 Z" id="icon-成功"></path>
            </g>
        </g>
    </g>
</svg>