<?xml version="1.0" encoding="UTF-8"?>
<svg width="16px" height="16px" viewBox="0 0 16 16" version="1.1" xmlns="http://www.w3.org/2000/svg" xmlns:xlink="http://www.w3.org/1999/xlink">
    <title>iconuploadblue</title>
    <g id="企业外迁预警V2.0-1221" stroke="none" stroke-width="1" fill="none" fill-rule="evenodd">
        <g id="2-5-1待办-默认列表-办结" transform="translate(-870, -558)" fill="#1177EE">
            <g id="弹窗" transform="translate(640, 353)">
                <g id="文字框" transform="translate(117, 197)">
                    <g id="iconuploadblue" transform="translate(113, 8)">
                        <polygon id="Path" opacity="0" points="16 0 0 0 0 16 16 16"></polygon>
                        <path d="M15,7.3 C15.3543827,7.3 15.6472582,7.56334362 15.6936098,7.90501415 L15.7,8 L15.7,15 C15.7,15.3543827 15.4366564,15.6472582 15.0949859,15.6936098 L15,15.7 L1,15.7 C0.645617286,15.7 0.35274177,15.4366564 0.306390175,15.0949859 L0.3,15 L0.3,8.00322778 C0.3,7.61662845 0.613400675,7.30322778 1,7.30322778 C1.35438271,7.30322778 1.64725823,7.5665714 1.69360983,7.90824192 L1.7,8.00322778 L1.7,14.3 L14.3,14.3 L14.3,8 C14.3,7.64561729 14.5633436,7.35274177 14.9050141,7.30639017 L15,7.3 Z M8.40820889,0.431216162 L8.49497475,0.505025253 L12.2449747,4.25502525 C12.5183418,4.52839226 12.5183418,4.97160774 12.2449747,5.24497475 C11.9989444,5.49100505 11.6153369,5.51560808 11.3417911,5.31878384 L11.2550253,5.24497475 L8.696,2.685 L8.69654167,10.3333333 C8.69654167,10.7199327 8.38314099,11.0333333 7.99654167,11.0333333 C7.64215895,11.0333333 7.34928344,10.7699897 7.30293184,10.4283192 L7.29654167,10.3333333 L7.296,2.691 L4.74497475,5.24497475 C4.49894444,5.49100505 4.11533687,5.51560808 3.84179111,5.31878384 L3.75502525,5.24497475 C3.50899495,4.99894444 3.48439192,4.61533687 3.68121616,4.34179111 L3.75502525,4.25502525 L7.50502525,0.505025253 C7.75105556,0.258994949 8.13466313,0.234391919 8.40820889,0.431216162 Z" id="iconupload" fill-rule="nonzero"></path>
                    </g>
                </g>
            </g>
        </g>
    </g>
</svg>