<?xml version="1.0" encoding="UTF-8"?>
<svg width="24px" height="24px" viewBox="0 0 24 24" version="1.1" xmlns="http://www.w3.org/2000/svg" xmlns:xlink="http://www.w3.org/1999/xlink">
    <title>Shape</title>
    <g id="页面-1" stroke="none" stroke-width="1" fill="none" fill-rule="evenodd">
        <g id="0-1-9登录超时" transform="translate(-712.000000, -267.000000)" fill="#FFAA00" fill-rule="nonzero">
            <g id="Group-3" transform="translate(672.000000, 235.000000)">
                <path d="M52,37.1428571 C51.0571429,37.1428571 50.2857143,37.9142857 50.2857143,38.8571429 L50.2857143,44 C50.2857143,44.9428571 51.0571429,45.7142857 52,45.7142857 C52.9428571,45.7142857 53.7142857,44.9428571 53.7142857,44 L53.7142857,38.8571429 C53.7142857,37.9142857 52.9428571,37.1428571 52,37.1428571 Z M52,32 C45.3657143,32 40,37.3657143 40,44 C40,50.6342857 45.3657143,56 52,56 C58.6342857,56 64,50.6342857 64,44 C64,37.3657143 58.6171429,32 52,32 Z M52,54.2857143 C46.3257143,54.2857143 41.7142857,49.6742857 41.7142857,44 C41.7142857,38.3257143 46.3257143,33.7142857 52,33.7142857 C57.6742857,33.7142857 62.2857143,38.3257143 62.2857143,44 C62.2857143,49.6742857 57.6742857,54.2857143 52,54.2857143 Z M52,47.4285714 C51.0571429,47.4285714 50.2857143,48.2 50.2857143,49.1428571 C50.2857143,50.0857143 51.0571429,50.8571429 52,50.8571429 C52.9428571,50.8571429 53.7142857,50.0857143 53.7142857,49.1428571 C53.7142857,48.2 52.9428571,47.4285714 52,47.4285714 Z" id="Shape"></path>
            </g>
        </g>
    </g>
</svg>