<?xml version="1.0" encoding="UTF-8"?>
<svg width="18px" height="18px" viewBox="0 0 18 18" version="1.1" xmlns="http://www.w3.org/2000/svg" xmlns:xlink="http://www.w3.org/1999/xlink">
    <title>icbanjienor</title>
    <g id="企业外迁预警V2.0-1221" stroke="none" stroke-width="1" fill="none" fill-rule="evenodd">
        <g id="1-4-3发布企业外迁动向-默认列表-发送-输入页" transform="translate(-16, -244)">
            <g id="侧边导航栏" transform="translate(0, 64)">
                <g id="日志管理" transform="translate(0, 164)">
                    <g id="icbanjienor" transform="translate(16, 16)">
                        <rect id="矩形" x="0" y="0" width="18" height="18"></rect>
                        <g id="编组" fill-rule="nonzero">
                            <path d="M12.9484374,0 C14.3161458,0 15,0.661054589 15,1.98316377 L15.0011092,10.5357707 C14.4125119,10.1950335 13.7290322,10 13,10 C10.790861,10 9,11.790861 9,14 C9,16.2001016 10.7762385,17.9853405 12.9729089,17.9999102 L12.9484374,18 L2.05156261,18 C0.683854202,18 0,17.3389454 0,16.0168362 L0,1.98316377 C0,0.661054589 0.683854202,0 2.05156261,0 L12.9484374,0 Z" id="形状结合" fill="#000000"></path>
                            <path d="M3.64377351,4.23167592 L9.91766706,4.23167592 C10.4632902,4.23167592 10.7361018,4.50098224 10.7361018,5.0395949 L10.7361018,5.0395949 C10.7361018,5.57820755 10.4632902,5.84751388 9.91766706,5.84751388 L3.64377351,5.84751388 C3.09815034,5.84751388 2.82533876,5.57820755 2.82533876,5.0395949 L2.82533876,5.0395949 C2.82533876,4.50098224 3.09815034,4.23167592 3.64377351,4.23167592 Z" id="路径" fill="#FFFFFF"></path>
                            <path d="M3.64377351,8.00165932 L5.96228554,8.00165932 C6.5079087,8.00165932 6.78072028,8.27096565 6.78072028,8.8095783 L6.78072028,8.8095783 C6.78072028,9.34819096 6.5079087,9.61749728 5.96228554,9.61749728 L3.64377351,9.61749728 C3.09815034,9.61749728 2.82533876,9.34819096 2.82533876,8.8095783 L2.82533876,8.8095783 C2.82533876,8.27096565 3.09815034,8.00165932 3.64377351,8.00165932 Z" id="路径" fill="#FFFFFF"></path>
                            <path d="M3.64377351,11.7716427 L5.03488073,11.7716427 C5.58050389,11.7716427 5.85331547,12.0409491 5.85331547,12.5795617 L5.85331547,12.5795617 C5.85331547,13.1181744 5.58050389,13.3874807 5.03488073,13.3874807 L3.64377351,13.3874807 C3.09815034,13.3874807 2.82533876,13.1181744 2.82533876,12.5795617 L2.82533876,12.5795617 C2.82533876,12.0409491 3.09815034,11.7716427 3.64377351,11.7716427 Z" id="路径" fill="#FFFFFF"></path>
                            <path d="M15.1842741,12.181538 L15.2632056,12.2614148 C15.5789315,12.6099678 15.5789315,12.9585208 15.2632056,13.3070738 L13.0607809,15.7384925 C12.8739431,15.9447565 12.6871054,16.0289592 12.5002676,15.9911006 C12.3138591,16.0290519 12.1270213,15.9448492 11.9401835,15.7385852 L10.7367944,14.4100754 C10.4497709,14.093209 10.4236778,13.7763427 10.6585153,13.4594763 L10.7367944,13.3644164 C11.0525203,13.0158633 11.3682461,13.0158633 11.683972,13.3644164 L12.5,14.265 L14.316028,12.2614148 C14.6054434,11.9419078 14.8948588,11.9152823 15.1842741,12.181538 Z" id="形状结合" fill="#000000"></path>
                        </g>
                    </g>
                </g>
            </g>
        </g>
    </g>
</svg>